<?xml version="1.0"?>
<svg version="1.1" xmlns="http://www.w3.org/2000/svg" width="125" height="59" style=""><path fill="#262126" d="M15.25,28.75l0-4.25l15.5-0.25l0,4.5l-3.7,1.45l4.6,14.35l1.6,6.15l1.6-5.9l4.95-14.55l-3.8-1.5l0-4.25l14.95-0.25l0,4.5l-3.65,1.5l-10.55,29.25l-8,0l-10.1-29.35z M56.4255,59.5l0-4.25l3.75-1.5l0-23.5l-3.75-1.5l0-4.25l11.5-0.25l3.8,0c8.2,0,13,3.4,13,10.2c0,4.7-2.25,7.75-5.65,9.45c0.55,0.65,1.3,1.6,2.1,3.25l3.35,6.85l3.4,1.25l0,4.25l-9.25,0l-4.2-9.25c-1.7-3.8-2.15-4.6-4.8-4.6l-1.75,0l0,8.1l3.6,1.5l0,4.25l-15.1,0z M67.9255,40.4l2.85,0c3.95,0,6.25-1.9,6.25-5.25c0-2.85-1.9-4.9-5-4.9l-4.1,0l0,10.15z M118.001,35.5l-1.15-4.8s-2.35-0.8-5.6-0.8c-5.25,0-8.25,3.9-8.25,12.25c0,8.1,3.25,11.5,8.5,11.5c5,0,9.5-3.5,9.5-3.5l2.75,4.5s-5.25,5.45-13.1,5.45c-10.15,0-16-6.1-16-17.7c0-11.75,6.6-18.75,16.85-18.75c6.05,0,11.65,2.35,11.65,2.35l-0.25,9.5l-4.9,0z"/><path fill="#" d=""/></svg>
